<svg t="1655694472704" class="icon" viewBox="0 0 1024 1024" version="1.1" xmlns="http://www.w3.org/2000/svg" p-id="985" width="200" height="200"><path d="M0 0h1024v1024H0z" fill="#FFFFFF" p-id="986"></path><path d="M896 555.845818a98.909091 102.958545 90 1 0-205.917091 0 98.909091 102.958545 90 1 0 205.917091 0Z" fill="#FFFFFF" p-id="987"></path><path d="M793.041455 608.197818a54.562909 54.562909 0 0 0 56.41309-52.363636 54.562909 54.562909 0 0 0-56.41309-52.363637 54.562909 54.562909 0 0 0-56.459637 52.363637 54.562909 54.562909 0 0 0 56.459637 52.363636m0 46.545455a100.992 100.992 0 0 1-103.005091-98.909091 100.992 100.992 0 0 1 103.005091-98.909091 100.992 100.992 0 0 1 102.958545 98.909091 100.992 100.992 0 0 1-102.958545 98.909091z" fill="#374BFF" p-id="988"></path><path d="M357.189818 555.845818a98.909091 102.958545 90 1 0-205.917091 0 98.909091 102.958545 90 1 0 205.917091 0Z" fill="#FFFFFF" p-id="989"></path><path d="M254.219636 608.197818a54.562909 54.562909 0 0 0 56.413091-52.363636 54.562909 54.562909 0 0 0-56.413091-52.363637 54.562909 54.562909 0 0 0-56.459636 52.363637 54.562909 54.562909 0 0 0 56.459636 52.363636m0 46.545455a100.992 100.992 0 0 1-103.005091-98.909091 100.992 100.992 0 0 1 103.005091-98.909091 100.992 100.992 0 0 1 102.958546 98.909091 100.992 100.992 0 0 1-102.958546 98.909091z" fill="#374BFF" p-id="990"></path><path d="M705.943273 718.114909h-367.406546a91.845818 91.845818 0 0 1-91.845818-91.845818v-199.435636a275.549091 275.549091 0 0 1 551.098182 0v199.435636a91.845818 91.845818 0 0 1-91.845818 91.845818z" fill="#FFFFFF" p-id="991"></path><path d="M705.943273 671.569455a45.381818 45.381818 0 0 0 45.300363-45.300364v-199.435636a229.003636 229.003636 0 0 0-390.981818-161.943273 227.514182 227.514182 0 0 0-67.072 161.931636v199.447273a45.381818 45.381818 0 0 0 45.346909 45.300364h367.406546m0 46.545454h-367.406546a91.845818 91.845818 0 0 1-91.845818-91.845818v-199.435636a275.549091 275.549091 0 0 1 551.098182 0v199.435636a91.845818 91.845818 0 0 1-91.845818 91.845818z" fill="#374BFF" p-id="992"></path><path d="M621.149091 456.936727a98.909091 98.909091 0 1 0-197.818182 0 98.909091 98.909091 0 1 0 197.818182 0Z" fill="#FFFFFF" p-id="993"></path><path d="M522.24 509.288727a52.363636 52.363636 0 1 0-52.363636-52.363636 52.421818 52.421818 0 0 0 52.363636 52.363636m0 46.545455a98.909091 98.909091 0 1 1 98.909091-98.909091 98.909091 98.909091 0 0 1-98.909091 98.909091z" fill="#FF4C27" p-id="994"></path><path d="M429.149091 760.913455v74.775272a23.272727 23.272727 0 0 1-23.272727 23.272728 23.272727 23.272727 0 0 1-23.272728-23.272728v-74.775272a23.272727 23.272727 0 0 1 23.272728-23.272728 23.272727 23.272727 0 0 1 23.272727 23.272728z" fill="#374BFF" p-id="995"></path><path d="M498.967273 760.913455v74.775272a23.272727 23.272727 0 0 1-23.272728 23.272728 23.272727 23.272727 0 0 1-23.272727-23.272728v-74.775272a23.272727 23.272727 0 0 1 23.272727-23.272728 23.272727 23.272727 0 0 1 23.272728 23.272728z" fill="#374BFF" p-id="996"></path><path d="M609.512727 760.913455v74.775272a23.272727 23.272727 0 0 1-23.272727 23.272728 23.272727 23.272727 0 0 1-23.272727-23.272728v-74.775272a23.272727 23.272727 0 0 1 23.272727-23.272728 23.272727 23.272727 0 0 1 23.272727 23.272728z" fill="#374BFF" p-id="997"></path><path d="M679.330909 760.913455v74.775272a23.272727 23.272727 0 0 1-23.272727 23.272728 23.272727 23.272727 0 0 1-23.272727-23.272728v-74.775272a23.272727 23.272727 0 0 1 23.272727-23.272728 23.272727 23.272727 0 0 1 23.272727 23.272728z" fill="#374BFF" p-id="998"></path></svg>